<svg width="30" height="30" viewBox="0 0 30 30" fill="none" xmlns="http://www.w3.org/2000/svg">
<g clip-path="url(#clip0)">
<path d="M25.3107 19.0128C24.9335 19.0128 24.6277 19.3185 24.6277 19.6958V25.7599C24.6264 26.8911 23.71 27.8078 22.5788 27.8089H3.41492C2.28373 27.8078 1.3673 26.8911 1.36597 25.7599V7.96204C1.3673 6.83112 2.28373 5.91442 3.41492 5.91309H9.47908C9.85632 5.91309 10.1621 5.60735 10.1621 5.2301C10.1621 4.85313 9.85632 4.54712 9.47908 4.54712H3.41492C1.52978 4.54925 0.00213433 6.0769 0 7.96204V25.7602C0.00213433 27.6453 1.52978 29.173 3.41492 29.1751H22.5788C24.4639 29.173 25.9916 27.6453 25.9937 25.7602V19.6958C25.9937 19.3185 25.688 19.0128 25.3107 19.0128V19.0128Z" fill="black"/>
</g>
<g clip-path="url(#clip1)">
<path d="M29.8269 10.1985C29.7869 10.0405 29.6561 9.92101 29.4945 9.89734L27.4612 9.59511C27.5426 8.04312 27.0951 6.46097 26.1533 5.19026C24.0322 2.32823 19.9784 1.72553 17.1164 3.84668C14.2544 5.96782 13.6517 10.0216 15.7728 12.8836C16.7996 14.269 18.3056 15.1718 20.0133 15.4252C20.3077 15.4691 20.581 15.2665 20.6248 14.972C20.6686 14.6776 20.466 14.4043 20.1716 14.3604C18.7486 14.1493 17.4934 13.3969 16.6379 12.2425C14.8703 9.85754 15.3726 6.47931 17.7575 4.71175C20.1425 2.94419 23.5207 3.44645 25.2882 5.83139C26.0608 6.87378 26.4359 8.16376 26.3915 9.43564L24.5995 9.16964C24.4377 9.14557 24.2782 9.22157 24.1939 9.36106C24.11 9.50093 24.1183 9.67771 24.2157 9.80918L26.2994 12.6206C26.4321 12.7997 26.6851 12.8373 26.8642 12.7046L29.6756 10.6209C29.8071 10.5235 29.8665 10.3569 29.8269 10.1985V10.1985Z" fill="black"/>
</g>
<defs>
<clipPath id="clip0">
<rect width="27.4234" height="27.4234" fill="white" transform="translate(0 1.78552)"/>
</clipPath>
<clipPath id="clip1">
<rect width="12.9206" height="12.9206" fill="white" transform="translate(22.3066) rotate(53.4566)"/>
</clipPath>
</defs>
</svg>
