<svg width="38" height="38" viewBox="0 0 38 38" fill="none" xmlns="http://www.w3.org/2000/svg">
<path d="M32.8647 17.5526C33.9774 16.7707 34.7143 15.4699 34.7143 14.0038C34.7143 11.6053 32.7744 9.66542 30.3759 9.66542C27.9774 9.66542 26.0376 11.6053 26.0376 14.0038C26.0376 15.4699 26.7669 16.7707 27.8872 17.5526C26.9323 17.8835 26.0602 18.3947 25.3233 19.0564C24.3083 18.1917 23.1128 17.5301 21.8045 17.1391C23.391 16.1767 24.4586 14.4248 24.4586 12.4323C24.4586 9.39474 22 6.9361 18.9624 6.9361C15.9248 6.9361 13.4662 9.40226 13.4662 12.4323C13.4662 14.4248 14.5263 16.1767 16.1203 17.1391C14.8271 17.5301 13.6466 18.1842 12.6391 19.0338C11.9023 18.3872 11.0451 17.8835 10.1053 17.5602C11.218 16.7782 11.9549 15.4774 11.9549 14.0113C11.9549 11.6128 10.015 9.67294 7.61654 9.67294C5.21805 9.67294 3.2782 11.6128 3.2782 14.0113C3.2782 15.4774 4.00752 16.7782 5.12782 17.5602C2.14286 18.5902 0 21.4248 0 24.7556V25.2519C0 25.2669 0.0150376 25.282 0.0300752 25.282H9.22556C9.17293 25.6955 9.14286 26.1241 9.14286 26.5526V27.0639C9.14286 29.2744 10.9323 31.0639 13.1429 31.0639H24.797C27.0075 31.0639 28.797 29.2744 28.797 27.0639V26.5526C28.797 26.1241 28.7669 25.6955 28.7143 25.282H37.9699C37.985 25.282 38 25.2669 38 25.2519V24.7556C37.985 21.4173 35.8496 18.5827 32.8647 17.5526ZM27.2406 13.9962C27.2406 12.2669 28.6466 10.8609 30.3759 10.8609C32.1053 10.8609 33.5113 12.2669 33.5113 13.9962C33.5113 15.703 32.1353 17.094 30.4361 17.1316C30.4135 17.1316 30.3985 17.1316 30.3759 17.1316C30.3534 17.1316 30.3383 17.1316 30.3158 17.1316C28.609 17.1015 27.2406 15.7105 27.2406 13.9962ZM14.6541 12.4323C14.6541 10.0639 16.5789 8.1391 18.9474 8.1391C21.3158 8.1391 23.2406 10.0639 23.2406 12.4323C23.2406 14.7181 21.4436 16.5902 19.1955 16.7181C19.1128 16.7181 19.0301 16.7181 18.9474 16.7181C18.8647 16.7181 18.782 16.7181 18.6992 16.7181C16.4511 16.5902 14.6541 14.7181 14.6541 12.4323ZM4.45865 13.9962C4.45865 12.2669 5.86466 10.8609 7.59399 10.8609C9.32331 10.8609 10.7293 12.2669 10.7293 13.9962C10.7293 15.703 9.35338 17.094 7.65414 17.1316C7.63158 17.1316 7.61654 17.1316 7.59399 17.1316C7.57143 17.1316 7.55639 17.1316 7.53383 17.1316C5.83459 17.1015 4.45865 15.7105 4.45865 13.9962ZM9.43609 24.0714H1.21805C1.55639 20.8684 4.26316 18.3571 7.54887 18.3346C7.56391 18.3346 7.57895 18.3346 7.59399 18.3346C7.60902 18.3346 7.62406 18.3346 7.6391 18.3346C9.20301 18.3421 10.6316 18.9211 11.7368 19.8609C10.6541 21.0338 9.84962 22.4774 9.43609 24.0714ZM27.5789 27.0639C27.5789 28.6053 26.3233 29.8609 24.782 29.8609H13.1278C11.5865 29.8609 10.3308 28.6053 10.3308 27.0639V26.5526C10.3308 21.8835 14.0602 18.0639 18.6992 17.9286C18.782 17.9361 18.8722 17.9361 18.9549 17.9361C19.0376 17.9361 19.1278 17.9361 19.2105 17.9286C23.8496 18.0639 27.5789 21.8835 27.5789 26.5526V27.0639ZM28.4737 24.0714C28.0602 22.485 27.2707 21.0639 26.1955 19.891C27.3083 18.9286 28.7519 18.3496 30.3308 18.3346C30.3459 18.3346 30.3609 18.3346 30.3759 18.3346C30.391 18.3346 30.406 18.3346 30.4211 18.3346C33.7068 18.3571 36.4135 20.8684 36.7519 24.0714H28.4737Z" fill="black"/>
</svg>
